<svg width="48" height="48" viewBox="0 0 48 48" fill="none" xmlns="http://www.w3.org/2000/svg">
<circle cx="24" cy="24" r="23" fill="white" stroke="#454545" stroke-width="2"/>
<path d="M32.835 22.3366C32.8003 22.1444 32.6991 21.9705 32.5493 21.8453C32.3994 21.7201 32.2103 21.6516 32.015 21.6516H24.1667C23.9457 21.6516 23.7337 21.7394 23.5774 21.8956C23.4212 22.0519 23.3334 22.2639 23.3334 22.4849V25.7082C23.3334 25.9292 23.4212 26.1412 23.5774 26.2975C23.7337 26.4538 23.9457 26.5416 24.1667 26.5416H27.4684C27.2333 26.9385 26.911 27.2767 26.5259 27.5307C25.8215 27.9773 25.0005 28.2049 24.1667 28.1849C23.3022 28.175 22.4628 27.893 21.7678 27.3788C21.0727 26.8646 20.5574 26.1445 20.295 25.3207V25.3191C20.0029 24.4636 20.0029 23.5354 20.295 22.6799V22.6782C20.5581 21.8549 21.0736 21.1353 21.7685 20.6214C22.4634 20.1075 23.3025 19.8253 24.1667 19.8149C24.6469 19.8039 25.1246 19.8879 25.5724 20.0619C26.0201 20.2359 26.4291 20.4966 26.7759 20.8291C26.9332 20.9798 27.1434 21.063 27.3613 21.0606C27.5793 21.0583 27.7876 20.9707 27.9417 20.8166L30.3317 18.4266C30.4109 18.3474 30.4733 18.2532 30.5153 18.1494C30.5572 18.0456 30.5779 17.9345 30.5759 17.8225C30.574 17.7106 30.5495 17.6002 30.504 17.498C30.4584 17.3957 30.3927 17.3037 30.3109 17.2274C28.6477 15.6676 26.4467 14.81 24.1667 14.8332C22.4666 14.8283 20.7989 15.2983 19.3517 16.1905C17.9045 17.0826 16.7352 18.3613 15.9759 19.8824L15.975 19.8841C15.3307 21.1602 14.9966 22.5703 15 23.9999C15.0027 25.429 15.3364 26.8381 15.975 28.1166L15.9759 28.1174C16.7352 29.6385 17.9045 30.9172 19.3517 31.8093C20.7989 32.7014 22.4666 33.1715 24.1667 33.1666C26.4045 33.2229 28.5793 32.4219 30.2459 30.9274L30.2467 30.9266C31.1494 30.0572 31.8605 29.009 32.3347 27.8489C32.8088 26.6889 33.0354 25.4426 33 24.1899C33.0004 23.5684 32.9452 22.9482 32.835 22.3366ZM24.1667 16.4999C25.7259 16.4857 27.2482 16.9746 28.5075 17.8941L27.2959 19.1049C26.3773 18.469 25.2837 18.1347 24.1667 18.1482C23.1469 18.1536 22.147 18.4305 21.2697 18.9504C20.3924 19.4704 19.6694 20.2146 19.175 21.1066L18.285 20.4166L17.7975 20.0382C18.468 18.953 19.4055 18.0579 20.5206 17.4384C21.6357 16.8189 22.8911 16.4958 24.1667 16.4999ZM17.0667 26.4191C16.5341 24.8503 16.5341 23.1495 17.0667 21.5807L18.5517 22.7324C18.3617 23.5667 18.3617 24.4331 18.5517 25.2674L17.0667 26.4191ZM24.1667 31.4999C22.8909 31.5041 21.6354 31.1811 20.5202 30.5616C19.4049 29.9421 18.4672 29.0469 17.7967 27.9616L18.1125 27.7166L19.1759 26.8916C19.6699 27.7837 20.3927 28.5282 21.2698 29.0484C22.147 29.5686 23.1469 29.8459 24.1667 29.8516C25.1213 29.8623 26.0651 29.6482 26.9217 29.2266L28.3309 30.3207C27.0909 31.119 25.6411 31.5296 24.1667 31.4999ZM29.605 29.1999L29.4525 29.0807L28.305 28.1899C28.9073 27.5398 29.3119 26.7316 29.4717 25.8599C29.494 25.7396 29.4895 25.6159 29.4585 25.4975C29.4276 25.3792 29.371 25.2691 29.2927 25.1751C29.2145 25.081 29.1165 25.0054 29.0057 24.9535C28.8949 24.9017 28.774 24.8748 28.6517 24.8749H25V23.3182H31.2909C31.3192 23.606 31.3334 23.8966 31.3334 24.1899C31.3821 26.0137 30.7681 27.7942 29.605 29.1999Z" fill="#454545"/>
</svg>
