<svg width="48" height="48" viewBox="0 0 48 48" fill="none" xmlns="http://www.w3.org/2000/svg">
<circle cx="24" cy="24" r="23" fill="white" stroke="#454545" stroke-width="2"/>
<path d="M27.3327 20.6667C28.6588 20.6667 29.9305 21.1935 30.8682 22.1312C31.8059 23.0689 32.3327 24.3407 32.3327 25.6667V31.5001H28.9993V25.6667C28.9993 25.2247 28.8238 24.8008 28.5112 24.4882C28.1986 24.1757 27.7747 24.0001 27.3327 24.0001C26.8907 24.0001 26.4667 24.1757 26.1542 24.4882C25.8416 24.8008 25.666 25.2247 25.666 25.6667V31.5001H22.3327V25.6667C22.3327 24.3407 22.8595 23.0689 23.7971 22.1312C24.7348 21.1935 26.0066 20.6667 27.3327 20.6667ZM15.666 21.5001H18.9993V31.5001H15.666V21.5001Z" stroke="#454545" stroke-width="1.5" stroke-linecap="round" stroke-linejoin="round"/>
<path d="M17.3327 19.0001C18.2532 19.0001 18.9993 18.2539 18.9993 17.3334C18.9993 16.4129 18.2532 15.6667 17.3327 15.6667C16.4122 15.6667 15.666 16.4129 15.666 17.3334C15.666 18.2539 16.4122 19.0001 17.3327 19.0001Z" stroke="#454545" stroke-width="1.5" stroke-linecap="round" stroke-linejoin="round"/>
</svg>
