<svg width="48" height="48" viewBox="0 0 48 48" fill="none" xmlns="http://www.w3.org/2000/svg">
<circle cx="24" cy="24" r="23" fill="white" stroke="#454545" stroke-width="2"/>
<path d="M33.1673 16.5084C33.1673 16.5084 31.4857 17.5017 30.5507 17.7834C30.0488 17.2063 29.3818 16.7973 28.6398 16.6117C27.8979 16.426 27.1169 16.4727 26.4024 16.7454C25.6879 17.0181 25.0744 17.5037 24.6448 18.1365C24.2153 18.7692 23.9904 19.5187 24.0007 20.2834V21.1167C22.5362 21.1547 21.085 20.8299 19.7765 20.1713C18.4679 19.5126 17.3426 18.5406 16.5007 17.3417C16.5007 17.3417 13.1673 24.8417 20.6673 28.175C18.9511 29.34 16.9066 29.9242 14.834 29.8417C22.334 34.0084 31.5007 29.8417 31.5007 20.2584C31.5001 20.0262 31.4779 19.7956 31.434 19.5667C32.284 18.7284 33.1673 16.5084 33.1673 16.5084Z" stroke="#454545" stroke-width="1.5" stroke-linecap="round" stroke-linejoin="round"/>
</svg>
